<?xml version="1.0" encoding="utf-8"?>
<!-- Generator: Adobe Illustrator 15.0.0, SVG Export Plug-In . SVG Version: 6.00 Build 0)  -->
<!DOCTYPE svg PUBLIC "-//W3C//DTD SVG 1.1//EN" "http://www.w3.org/Graphics/SVG/1.1/DTD/svg11.dtd">
<svg version="1.1"
	 id="svg2" xmlns:sodipodi="http://sodipodi.sourceforge.net/DTD/sodipodi-0.dtd" xmlns:inkscape="http://www.inkscape.org/namespaces/inkscape" xmlns:rdf="http://www.w3.org/1999/02/22-rdf-syntax-ns#" xmlns:cc="http://web.resource.org/cc/" xmlns:dc="http://purl.org/dc/elements/1.1/" xmlns:svg="http://www.w3.org/2000/svg" sodipodi:docname="Bicycle Route sign (Outline).svg" inkscape:version="0.44" sodipodi:version="0.32" sodipodi:docbase="C:\Documents and Settings\ltljltlj\Desktop\Signs\Guide Signs"
	 xmlns="http://www.w3.org/2000/svg" xmlns:xlink="http://www.w3.org/1999/xlink" x="0px" y="0px" width="601px" height="451px"
	 viewBox="0 0 601 451" enable-background="new 0 0 601 451" xml:space="preserve">
<sodipodi:namedview  width="601px" height="451px" inkscape:zoom="1.7155556" bordercolor="#666666" gridtolerance="10000" inkscape:cy="225.00001" objecttolerance="10" inkscape:cx="300.00001" pagecolor="#ffffff" guidetolerance="10" borderopacity="1.0" inkscape:window-y="-4" inkscape:window-x="-4" inkscape:document-units="px" inkscape:pageopacity="0.0" inkscape:current-layer="layer1" inkscape:pageshadow="2" inkscape:window-height="968" inkscape:window-width="1280" id="base">
	</sodipodi:namedview>
<g id="g5499" transform="matrix(2.465279,0,0,2.282609,1920.973,-187.8807)">
	<g id="g5478" transform="matrix(1.028571,0,0,1.022222,-443.2141,-46.11586)">
		<path id="path5490" fill="#FFFFFF" stroke="#231F20" stroke-width="2" d="M-173.265,239.929l29.551-5.35l-18.625-26.836
			C-171.993,217.08-173.193,228.288-173.265,239.929z M-181.395,241.892c-0.048-1.163-0.216-3.033-0.216-4.343
			c0-13.279,3.872-26.184,14.383-36.909l-10.946-14.539l-16.943,57.335L-181.395,241.892z M-246.426,184.829l0.939-3.19
			l60.347-0.088l-16.053,53.982l-0.693-5.631h1.847l-0.232-3.584h-8.077l0.231,3.328h2.077l0.461,6.144
			C-205.578,235.791-246.195,185.085-246.426,184.829z M-273.152,236.686c8.104-7.14,14.412-13.945,18.961-27.564
			c7.18,7.225,11.276,17.674,11.276,28.427c0,21.353-15.701,38.77-34.952,38.77c-19.25,0-34.951-17.417-34.951-38.77
			c0-21.354,15.701-38.77,34.951-38.77c6.144,0,12.424,1.969,17.489,5.285c-3.428,12.015-6.762,18.212-17.31,27.631
			c-2.56,0.12-4.507,2.401-4.507,5.12c0,2.82,2.073,5.12,4.615,5.12C-275.039,241.934-273.152,239.635-273.152,236.686z
			 M-172.027,248.166c3.953,16.341,18.016,28.154,33.581,28.154c19.25,0,34.952-17.417,34.952-38.771
			c0-21.354-15.701-38.771-34.952-38.771c-6.145,0-13.253,1.609-18.44,4.977l18.971,27.939c2.32,0.041,4.34,2.34,4.34,5.12
			c0,2.82-2.074,5.12-4.616,5.12c-0.704,0-1.442-0.2-2.066-0.526L-172.027,248.166z M-257.884,195.09l12.381-37.889l-3.923-7.425
			l7.846-9.471h16.846l0.231,5.376h-14.77l-3,3.584l3.461,6.912l-4.353,17.114h60.46l0.923-3.13
			c-4.859-0.702-13.24-4.022-15.241-5.951c-2.001-1.929-0.25-3.702,2.031-3.786c11.933-0.562,29.661-1.671,33.029-1.687
			c3.367-0.017,3.712,1.862,1.458,4.597c-2.254,2.735-4.225,5.198-12.766,6.666l-2.307,6.912l14.306,19.661
			c6.743-4.541,14.899-6.904,22.824-6.904c23.774,0,43.165,21.509,43.165,47.881s-19.391,47.881-43.165,47.881
			c-19.559,0-36.758-14.962-41.812-35.642l-13.147,2.621c-0.563,1.719-1.874,3.038-3.441,4.069l2.344,12.337h3.001l0.23,3.328
			l-9.462,0.511v-3.584h2.308l-2.858-12.329c-4.253-0.772-6.481-4.81-5.215-8.818l-42.945-53.877l-1.923,5.781
			c10.423,9.107,16.662,23.134,16.662,37.723c0,26.372-19.391,47.881-43.165,47.881c-23.774,0-43.164-21.509-43.164-47.881
			s19.39-47.881,43.164-47.881C-270.954,189.668-263.873,191.54-257.884,195.09z"/>
	</g>
</g>
</svg>
